<svg width="100" height="100" viewBox="0 0 100 100" fill="none" xmlns="http://www.w3.org/2000/svg">
  <defs>
    <linearGradient id="goldMesh" x1="0%" y1="0%" x2="100%" y2="100%">
      <stop offset="0%" stop-color="#EBC47B" />
      <stop offset="50%" stop-color="#D2A353" />
      <stop offset="100%" stop-color="#B28230" />
    </linearGradient>

    <polygon id="hexNode" points="0,-4 3.5,-2 3.5,2 0,4 -3.5,2 -3.5,-2" fill="url(#goldMesh)" />
  </defs>

  <path
    d="M 50 6 C 50 6, 66 6, 77.5 13 C 87 19, 91 30, 91 42 C 91 67, 85 83, 68 92 C 62 95.5, 56 98, 50 100 C 44 98, 38 95.5, 32 92 C 15 83, 9 67, 9 42 C 9 30, 13 19, 22.5 13 C 34 6, 50 6, 50 6 Z"
    stroke="url(#goldMesh)"
    stroke-width="2.5"
    stroke-linejoin="round"
    stroke-linecap="round"
    fill="none"
  />

  <g stroke="url(#goldMesh)" stroke-width="2.5" stroke-linecap="round" stroke-linejoin="round">
    <line x1="50" y1="24" x2="34" y2="38" />
    <line x1="50" y1="24" x2="66" y2="38" />
    <line x1="34" y1="38" x2="66" y2="38" />
    <line x1="34" y1="38" x2="29" y2="58" />
    <line x1="66" y1="38" x2="71" y2="58" />
    <line x1="34" y1="38" x2="50" y2="68" />
    <line x1="66" y1="38" x2="50" y2="68" />
    <line x1="29" y1="58" x2="71" y2="58" />
    <line x1="29" y1="58" x2="50" y2="68" />
    <line x1="71" y1="58" x2="50" y2="68" />
    <line x1="29" y1="58" x2="37" y2="78" />
    <line x1="71" y1="58" x2="63" y2="78" />
    <line x1="50" y1="68" x2="37" y2="78" />
    <line x1="50" y1="68" x2="63" y2="78" />
    <line x1="37" y1="78" x2="63" y2="78" />
  </g>

  <g fill="url(#goldMesh)">
    <use href="#hexNode" transform="translate(50,24)" />
    <use href="#hexNode" transform="translate(34,38)" />
    <use href="#hexNode" transform="translate(66,38)" />
    <use href="#hexNode" transform="translate(29,58)" />
    <use href="#hexNode" transform="translate(71,58)" />
    <use href="#hexNode" transform="translate(50,68)" />
    <use href="#hexNode" transform="translate(37,78)" />
    <use href="#hexNode" transform="translate(63,78)" />
  </g>
</svg>
